<svg xmlns="http://www.w3.org/2000/svg" width="15.844" height="14.938" viewBox="0 0 15.844 14.938">
  <defs>
    <style>
      .cls-1 {
        fill: #999;
        fill-rule: evenodd;
      }
    </style>
  </defs>
  <path id="astronom" class="cls-1" d="M15.478,4.5L9.769,7.782V9.334l3.066,4.618a0.635,0.635,0,0,1-.128.866,0.592,0.592,0,0,1-.331.109,0.624,0.624,0,0,1-.5-0.269L9.218,10.628v2.9a0.593,0.593,0,1,1-1.187,0v-2.9L5.4,14.659a0.558,0.558,0,0,1-.77.186l-0.039-.027a0.641,0.641,0,0,1-.156-0.866L7.476,9.334V9.155l-1.01.587-2.349-4.4L13.176,0.1A0.749,0.749,0,0,1,13.555,0a0.772,0.772,0,0,1,.681.418l1.576,2.976A0.842,0.842,0,0,1,15.478,4.5Zm-10.2,5.922,0.139-.08h0L3.077,5.94h0l-0.139.08a1.559,1.559,0,0,0-.569,2.07L2.518,8.369,1.3,9.075,1.187,8.856A0.579,0.579,0,0,0,.406,8.6l-0.027.015a0.638,0.638,0,0,0-.231.846l0.805,1.513a0.581,0.581,0,0,0,.52.318,0.516,0.516,0,0,0,.288-0.08,0.624,0.624,0,0,0,.231-0.836L1.878,10.16l1.217-.707,0.2,0.368a1.43,1.43,0,0,0,1.931.626Z" transform="translate(-0.063)"/>
</svg>
