<?xml version="1.0" encoding="utf-8"?>
<svg xmlns="http://www.w3.org/2000/svg"
	xmlns:xlink="http://www.w3.org/1999/xlink"
	width="13px" height="16px" viewBox="0 0 13 16">
<path fillRule="evenodd" d="M 10.91 11.91C 10.91 11.91 10.91 12.9 10.91 12.9 10.91 12.9 7.38 12.9 7.38 12.9 7.38 12.9 7.38 11.91 7.38 11.91 7.38 11.91 10.91 11.91 10.91 11.91ZM 12.77 14.97C 12.77 14.97 11.29 14.97 11.29 14.97 11.29 14.97 11.29 15.78 11.29 15.78 11.29 15.9 11.18 16 11.05 16 11.05 16 9.15 16 9.15 16 9.02 16 8.91 15.9 8.91 15.78 8.91 15.78 8.91 14.97 8.91 14.97 8.91 14.97 4.09 14.97 4.09 14.97 4.09 14.97 4.09 15.78 4.09 15.78 4.09 15.9 3.98 16 3.85 16 3.85 16 1.95 16 1.95 16 1.82 16 1.71 15.9 1.71 15.78 1.71 15.78 1.71 14.97 1.71 14.97 1.71 14.97 0.23 14.97 0.23 14.97 0.1 14.97 0 14.87 0 14.75 0 14.75 0 13.35 0 13.35 0 13.23 0.1 13.13 0.23 13.13 0.23 13.13 0.97 13.13 0.97 13.13 0.81 12.81 0.72 12.44 0.72 12.06 0.72 11.49 0.92 10.96 1.26 10.54 1.3 9.31 1.67 8.07 2.38 6.97 3.48 5.28 5.27 4.15 7.29 3.76 7.29 3.76 7.29 1.23 7.29 1.23 7.29 1.1 7.4 1 7.53 1 7.53 1 7.75 1 7.75 1 7.75 1 7.75 0.22 7.75 0.22 7.75 0.1 7.86-0 7.98-0 7.98-0 10.31-0 10.31-0 10.43-0 10.54 0.1 10.54 0.22 10.54 0.22 10.54 1 10.54 1 10.54 1 10.77 1 10.77 1 10.89 1 11 1.1 11 1.23 11 1.23 11 8.27 11 8.27 11 8.39 10.89 8.49 10.77 8.49 10.77 8.49 10.54 8.49 10.54 8.49 10.54 8.49 10.54 10.05 10.54 10.05 10.54 10.17 10.43 10.27 10.31 10.27 10.31 10.27 7.98 10.27 7.98 10.27 7.86 10.27 7.75 10.17 7.75 10.05 7.75 10.05 7.75 8.49 7.75 8.49 7.75 8.49 7.53 8.49 7.53 8.49 7.4 8.49 7.29 8.39 7.29 8.27 7.29 8.27 7.29 6.02 7.29 6.02 5.68 6.64 4.44 8.05 4.2 9.73 5.2 10.07 5.91 10.99 5.91 12.06 5.91 12.44 5.82 12.81 5.66 13.13 5.66 13.13 12.77 13.13 12.77 13.13 12.9 13.13 13 13.23 13 13.35 13 13.35 13 14.75 13 14.75 13 14.87 12.9 14.97 12.77 14.97ZM 3.31 10.98C 2.69 10.98 2.19 11.47 2.19 12.06 2.19 12.66 2.69 13.14 3.31 13.14 3.94 13.14 4.44 12.66 4.44 12.06 4.44 11.47 3.94 10.98 3.31 10.98Z" fill="rgb(153,153,153)"/></svg>