<?xml version="1.0" encoding="utf-8"?>
<svg xmlns="http://www.w3.org/2000/svg"
	xmlns:xlink="http://www.w3.org/1999/xlink"
	width="14px" height="14px" viewBox="0 0 14 14">
<path fillRule="evenodd" d="M 12.25 14C 12.25 14 1.75 14 1.75 14 0.78 14-0 13.22-0 12.25-0 12.25-0 4.37-0 4.37-0 3.41 0.78 2.62 1.75 2.62 1.75 2.62 3.5 2.62 3.5 2.62 3.5 2.62 3.5 1.75 3.5 1.75 3.5 0.78 4.28-0 5.25-0 5.25-0 8.75-0 8.75-0 9.72-0 10.5 0.78 10.5 1.75 10.5 1.75 10.5 2.62 10.5 2.62 10.5 2.62 12.25 2.62 12.25 2.62 13.22 2.62 14 3.41 14 4.37 14 4.37 14 12.25 14 12.25 14 13.22 13.22 14 12.25 14ZM 8.31 1.75C 8.31 1.75 5.69 1.75 5.69 1.75 5.45 1.75 5.25 1.95 5.25 2.19 5.25 2.43 5.45 2.62 5.69 2.62 5.69 2.62 8.31 2.62 8.31 2.62 8.55 2.62 8.75 2.43 8.75 2.19 8.75 1.95 8.55 1.75 8.31 1.75ZM 11.37 4.37C 11.37 4.37 2.62 4.37 2.62 4.37 2.14 4.37 1.75 4.77 1.75 5.25 1.75 5.73 2.14 6.12 2.62 6.12 2.62 6.12 11.37 6.12 11.37 6.12 11.86 6.12 12.25 5.73 12.25 5.25 12.25 4.77 11.86 4.37 11.37 4.37ZM 12.25 8.75C 12.25 8.27 11.86 7.87 11.37 7.87 11.37 7.87 10.5 7.87 10.5 7.87 10.5 7.87 10.5 8.75 10.5 8.75 10.5 9.23 10.11 9.62 9.62 9.62 9.14 9.62 8.75 9.23 8.75 8.75 8.75 8.75 8.75 7.87 8.75 7.87 8.75 7.87 5.25 7.87 5.25 7.87 5.25 7.87 5.25 8.75 5.25 8.75 5.25 9.23 4.86 9.62 4.37 9.62 3.89 9.62 3.5 9.23 3.5 8.75 3.5 8.75 3.5 7.87 3.5 7.87 3.5 7.87 2.62 7.87 2.62 7.87 2.14 7.87 1.75 8.27 1.75 8.75 1.75 8.75 1.75 11.37 1.75 11.37 1.75 11.86 2.14 12.25 2.62 12.25 2.62 12.25 11.37 12.25 11.37 12.25 11.86 12.25 12.25 11.86 12.25 11.37 12.25 11.37 12.25 8.75 12.25 8.75Z" fill="rgb(153,153,153)"/></svg>