<svg xmlns="http://www.w3.org/2000/svg" width="13.969" height="16" viewBox="0 0 13.969 16">
  <defs>
    <style>
      .cls-1 {
        fill: #999;
        fill-rule: evenodd;
      }
    </style>
  </defs>
  <path id="clasuha" class="cls-1" d="M3.681,8.746a0.612,0.612,0,0,0,.479.23H4.181L3.148,11.9a0.257,0.257,0,0,0,.16.326,0.253,0.253,0,0,0,.083.014H4.575v2.929a0.819,0.819,0,0,0,.8.82A0.81,0.81,0,0,0,6.2,15.2s0-.009,0-0.014V12.244H6.59v2.929a0.819,0.819,0,0,0,.8.82,0.81,0.81,0,0,0,.825-0.8s0-.009,0-0.014V12.244H9.4a0.256,0.256,0,0,0,.243-0.34L8.212,7.856V6.047l1.071,0.61a0.641,0.641,0,0,0,.3.08,0.59,0.59,0,0,0,.259-0.06,0.6,0.6,0,0,0,.336-0.45L10.5,4.237a0.493,0.493,0,0,1-.349.14H10.022a0.512,0.512,0,0,1-.5-0.37l-0.1-.34a0.62,0.62,0,0,0-.093.23L9.121,5.177S8,4.607,7.458,4.307a2.214,2.214,0,0,0-1.073-.35,2.283,2.283,0,0,0-.979.28,0.021,0.021,0,0,0,0,.01l-3.061,1.6a0.6,0.6,0,0,0-.309.4,0.589,0.589,0,0,0,.111.49Zm0.9-2.7V7.856h0L3.549,6.577Zm9.243-5.707a0.1,0.1,0,0,0-.054.01L9.6,1.449H9.039a0.187,0.187,0,0,0-.19.184s0,0,0,.006v0.85a0.193,0.193,0,0,0,.19.19H9.487L9.71,3.438l0.136,0.48a0.188,0.188,0,0,0,.183.13h0.133a0.186,0.186,0,0,0,.19-0.182s0-.005,0-0.008V2.8l3.436,0.7h0.038a0.187,0.187,0,0,0,.19-0.18v-2.9c-0.01-.11-0.094-0.08-0.2-0.08h0Zm0.868,1.619a0.224,0.224,0,0,0,.224.22h0l0.868-.02a0.22,0.22,0,0,0,0-.44h0l-0.867.01a0.221,0.221,0,0,0-.222.22s0,0.007,0,.01h0Zm0.548-1.649-0.713.53a0.217,0.217,0,0,0-.02.306l0,0a0.229,0.229,0,0,0,.166.08,0.218,0.218,0,0,0,.15-0.06l0.712-.64c0.092-.08.1-0.11,0.018-0.21A0.218,0.218,0,0,0,15.246.3l-0.011.01h0ZM14.53,3.088l0.712,0.62a0.2,0.2,0,0,0,.147.05,0.221,0.221,0,0,0,.169-0.07,0.229,0.229,0,0,0-.022-0.32l-0.713-.61a0.228,0.228,0,0,0-.316.02,0.218,0.218,0,0,0,.017.308l0,0h0Zm-5.993.2a0.9,0.9,0,0,1-.479-0.8C8.058,1.879,8.214,0,6.411,0S4.764,1.879,4.764,2.488a0.894,0.894,0,0,1-.479.8,0.1,0.1,0,0,0-.05.12,0.588,0.588,0,0,0,.623.42A2.3,2.3,0,0,0,5.73,3.6a0.936,0.936,0,0,1-.38-0.63,1.218,1.218,0,0,0,2.121,0,0.933,0.933,0,0,1-.38.63,2.306,2.306,0,0,0,.873.23,0.589,0.589,0,0,0,.622-0.42,0.1,0.1,0,0,0-.056-0.12H8.538Z" transform="translate(-2.031)"/>
</svg>
