<?xml version="1.0" encoding="utf-8"?>
<svg xmlns="http://www.w3.org/2000/svg"
	xmlns:xlink="http://www.w3.org/1999/xlink"
	width="8px" height="8px" viewBox="0 0 8 8">
<path fillRule="evenodd" d="M 7 6C 7 6 6 6 6 6 6 6 5.5 6 5.5 6 5.5 6 4.71 6 4.71 6 4.71 6 2.85 7.85 2.85 7.85 2.85 7.85 2.85 7.85 2.85 7.85 2.76 7.94 2.64 8 2.5 8 2.22 8 2 7.77 2 7.5 2 7.5 2 6 2 6 2 6 1.5 6 1.5 6 1.5 6 1 6 1 6 0.45 6-0 5.55-0 5-0 5-0 1-0 1-0 0.45 0.45-0 1-0 1-0 7-0 7-0 7.55-0 8 0.45 8 1 8 1 8 5 8 5 8 5.55 7.55 6 7 6Z" fill="rgb(203,203,203)"/></svg>