<?xml version="1.0" encoding="utf-8"?>
<svg xmlns="http://www.w3.org/2000/svg"
	xmlns:xlink="http://www.w3.org/1999/xlink"
	width="14px" height="16px" viewBox="0 0 14 16">
<path fillRule="evenodd" d="M 13.61 5.48C 13.61 5.48 12.38 5.86 12.38 5.86 12.32 5.87 12.26 5.88 12.2 5.88 11.97 5.88 11.75 5.74 11.67 5.52 11.58 5.24 11.74 4.94 12.03 4.85 12.03 4.85 13.27 4.47 13.27 4.47 13.56 4.38 13.88 4.53 13.97 4.81 14.07 5.09 13.91 5.38 13.61 5.48ZM 11.31 12.59C 11.21 12.66 11.1 12.69 10.98 12.69 10.81 12.69 10.64 12.61 10.53 12.47 10.53 12.47 9.76 11.47 9.76 11.47 9.58 11.23 9.64 10.9 9.89 10.73 10.14 10.56 10.49 10.61 10.67 10.85 10.67 10.85 11.43 11.85 11.43 11.85 11.61 12.08 11.56 12.42 11.31 12.59ZM 10.67 3.07C 10.56 3.21 10.39 3.29 10.22 3.29 10.1 3.29 9.99 3.25 9.89 3.18 9.64 3.01 9.58 2.68 9.76 2.44 9.76 2.44 10.53 1.44 10.53 1.44 10.71 1.21 11.06 1.15 11.31 1.33 11.56 1.5 11.61 1.83 11.43 2.07 11.43 2.07 10.67 3.07 10.67 3.07ZM 7 2.29C 6.69 2.29 6.44 2.06 6.44 1.76 6.44 1.76 6.44 0.53 6.44 0.53 6.44 0.23 6.69-0 7-0 7.31-0 7.56 0.23 7.56 0.53 7.56 0.53 7.56 1.76 7.56 1.76 7.56 2.06 7.31 2.29 7 2.29ZM 4.11 3.18C 4.01 3.25 3.9 3.29 3.78 3.29 3.61 3.29 3.44 3.21 3.33 3.07 3.33 3.07 2.57 2.07 2.57 2.07 2.39 1.83 2.44 1.5 2.69 1.33 2.94 1.15 3.29 1.21 3.47 1.44 3.47 1.44 4.24 2.44 4.24 2.44 4.42 2.68 4.36 3.01 4.11 3.18ZM 3.33 10.85C 3.51 10.61 3.86 10.56 4.11 10.73 4.36 10.9 4.42 11.23 4.24 11.47 4.24 11.47 3.47 12.47 3.47 12.47 3.36 12.61 3.19 12.69 3.02 12.69 2.9 12.69 2.79 12.66 2.69 12.59 2.44 12.42 2.38 12.08 2.57 11.85 2.57 11.85 3.33 10.85 3.33 10.85ZM 1.8 5.88C 1.74 5.88 1.68 5.87 1.62 5.86 1.62 5.86 0.39 5.48 0.39 5.48 0.09 5.38-0.07 5.08 0.03 4.81 0.12 4.53 0.44 4.38 0.73 4.46 0.73 4.46 1.97 4.85 1.97 4.85 2.26 4.94 2.42 5.24 2.33 5.52 2.25 5.74 2.03 5.88 1.8 5.88ZM 0.39 8.44C 0.39 8.44 1.62 8.06 1.62 8.06 1.92 7.97 2.23 8.12 2.33 8.4 2.42 8.68 2.26 8.98 1.97 9.07 1.97 9.07 0.73 9.45 0.73 9.45 0.67 9.47 0.62 9.47 0.56 9.47 0.32 9.47 0.1 9.33 0.03 9.11-0.07 8.83 0.09 8.53 0.39 8.44ZM 5.14 12.44C 5.14 12.44 5.14 11.16 5.14 11.16 4.75 10.53 4.3 9.91 3.82 9.34 3.28 8.69 2.96 7.87 2.96 6.98 2.96 4.86 4.77 3.14 7 3.14 9.23 3.14 11.04 4.86 11.04 6.98 11.04 7.87 10.71 8.69 10.17 9.34 9.72 9.88 9.23 10.59 8.84 11.19 8.84 11.19 8.84 12.44 8.84 12.44 8.84 12.44 5.14 12.44 5.14 12.44ZM 5.5 13.04C 5.5 13.04 8.49 13.04 8.49 13.04 8.73 13.04 8.91 13.22 8.91 13.44 8.91 13.66 8.73 13.84 8.49 13.84 8.49 13.84 5.5 13.84 5.5 13.84 5.27 13.84 5.08 13.66 5.08 13.44 5.08 13.22 5.27 13.04 5.5 13.04ZM 7.77 15.36C 7.71 15.72 7.39 16 7 16 6.61 16 6.29 15.72 6.23 15.36 5.72 15.33 5.31 14.94 5.31 14.44 5.31 14.44 8.69 14.44 8.69 14.44 8.69 14.94 8.28 15.33 7.77 15.36ZM 12.38 8.06C 12.38 8.06 13.61 8.44 13.61 8.44 13.91 8.53 14.07 8.83 13.97 9.11 13.9 9.33 13.68 9.48 13.44 9.48 13.38 9.48 13.33 9.47 13.27 9.45 13.27 9.45 12.03 9.07 12.03 9.07 11.74 8.98 11.58 8.68 11.67 8.4 11.77 8.12 12.08 7.97 12.38 8.06Z" fill="rgb(153,153,153)"/></svg>