<svg xmlns="http://www.w3.org/2000/svg" width="8" height="15.969" viewBox="0 0 8 15.969">
  <defs>
    <style>
      .cls-1 {
        fill: #999;
        fill-rule: evenodd;
      }
    </style>
  </defs>
  <path id="director" class="cls-1" d="M8.147,3.74A1.858,1.858,0,1,0,6.34,1.834c0,0.016,0,.033,0,0.049A1.838,1.838,0,0,0,8.147,3.74Zm3.765,5.442c-0.225-.529-0.414-1.078-0.6-1.618-0.479-1.4-1.05-3.375-1.966-3.375H6.935c-0.952,0-1.49,1.977-1.966,3.375C4.784,8.1,4.6,8.653,4.37,9.182a0.711,0.711,0,0,0,.155.909,0.392,0.392,0,0,1,.029.25,0.077,0.077,0,0,1-.063.089H4.4a0.405,0.405,0,0,0-.4.409v2.526a0.405,0.405,0,0,0,.4.409H5.162a0.405,0.405,0,0,0,.4-0.409V10.839a0.405,0.405,0,0,0-.4-0.409H5.1a0.1,0.1,0,0,1-.068-0.09,0.184,0.184,0,0,1,.049-0.19,0.782,0.782,0,0,0,.391-0.439c0.177-.419.463-1.318,0.652-1.867,0.044-.13.1-0.22,0.087,0.01V9.581a0.93,0.93,0,0,0,.055.439c0.054,0.07.148,0.04,0.148,0.21V15.1a0.834,0.834,0,0,0,.765.9l0.033,0a0.768,0.768,0,0,0,.713-0.889V10.43c0-.06.01-0.15,0.178-0.15H8.136c0.169,0,.181.1,0.181,0.13V15.1a0.779,0.779,0,0,0,.647.891C8.987,16,9.01,16,9.033,16a0.834,0.834,0,0,0,.8-0.866c0-.011,0-0.022,0-0.033V10.25a0.366,0.366,0,0,1,.143-0.18,0.558,0.558,0,0,0,.12-0.349V7.774c0-.18.038-0.08,0.057,0,0.148,0.549.435,1.548,0.62,1.987a0.591,0.591,0,0,0,.556.429,0.682,0.682,0,0,0,.587-1.008h0Zm-3.069-2.2-0.6.569a0.156,0.156,0,0,1-.2,0l-0.6-.569a0.264,0.264,0,0,1-.073-0.23l0.31-1.518c0-.03.019-0.1,0.017-0.11l-0.024-.32A0.125,0.125,0,0,1,7.786,4.67h0.7a0.126,0.126,0,0,1,.127.124,0.123,0.123,0,0,1,0,.016s-0.019.24-.025,0.32c0,0.01.013,0.08,0.018,0.11l0.31,1.518A0.264,0.264,0,0,1,8.844,6.985Z" transform="translate(-4 -0.031)"/>
</svg>
