<?xml version="1.0" encoding="utf-8"?>
<svg xmlns="http://www.w3.org/2000/svg"
	xmlns:xlink="http://www.w3.org/1999/xlink"
	width="14px" height="16px" viewBox="0 0 14 16">
<path fillRule="evenodd" d="M 12.93 7.19C 12.72 7.46 12.49 7.73 12.24 8.01 12.49 8.28 12.72 8.55 12.93 8.82 13.41 9.45 13.73 10.05 13.89 10.59 14.02 11.03 14.1 11.67 13.76 12.22 13.3 12.97 12.36 13.12 11.66 13.12 11.66 13.12 11.66 13.12 11.66 13.12 11.07 13.12 10.39 13.02 9.67 12.83 9.6 13.06 9.53 13.28 9.45 13.5 9.17 14.24 8.83 14.83 8.46 15.26 8.16 15.6 7.66 16 7.02 16 7.02 16 7.01 16 7.01 16 6.5 16 6 15.75 5.57 15.26 5.19 14.84 4.86 14.25 4.58 13.5 4.49 13.29 4.42 13.06 4.34 12.82 3.62 13.02 2.94 13.12 2.34 13.12 1.64 13.12 0.7 12.96 0.24 12.22-0.1 11.67-0.02 11.03 0.11 10.59 0.27 10.05 0.59 9.45 1.07 8.82 1.28 8.55 1.51 8.28 1.76 8.01 1.51 7.74 1.28 7.46 1.07 7.19 0.59 6.56 0.27 5.96 0.11 5.42-0.02 4.98-0.1 4.35 0.24 3.79 0.7 3.05 1.64 2.89 2.34 2.89 2.93 2.89 3.61 2.99 4.33 3.19 4.4 2.95 4.47 2.73 4.55 2.51 4.83 1.77 5.17 1.17 5.54 0.75 5.84 0.41 6.34-0 6.98-0 6.98-0 6.99-0 6.99-0 7.5-0 8 0.26 8.43 0.75 8.81 1.17 9.14 1.76 9.42 2.5 9.51 2.72 9.58 2.95 9.66 3.19 10.39 2.99 11.06 2.89 11.66 2.89 12.36 2.89 13.3 3.05 13.76 3.79 14.1 4.34 14.02 4.98 13.89 5.42 13.73 5.96 13.41 6.56 12.93 7.19ZM 2.34 3.8C 1.95 3.8 1.26 3.86 1.01 4.27 0.72 4.74 1.02 5.62 1.79 6.64 1.97 6.88 2.18 7.12 2.4 7.36 2.82 6.97 3.28 6.58 3.78 6.2 3.84 5.45 3.95 4.73 4.1 4.07 3.44 3.89 2.85 3.8 2.34 3.8ZM 3.71 7.42C 3.47 7.61 3.25 7.81 3.04 8.01 3.25 8.2 3.48 8.4 3.71 8.6 3.71 8.4 3.7 8.21 3.7 8.01 3.7 7.81 3.7 7.61 3.71 7.42ZM 3.79 9.81C 3.29 9.44 2.82 9.04 2.4 8.65 2.18 8.89 1.97 9.13 1.79 9.37 1.02 10.39 0.72 11.27 1.01 11.74 1.26 12.15 1.95 12.21 2.34 12.21 2.85 12.21 3.45 12.12 4.11 11.94 3.96 11.28 3.85 10.56 3.79 9.81ZM 9.03 11.67C 9.11 11.3 9.18 10.91 9.24 10.51 9.07 10.61 8.91 10.72 8.74 10.83 8.49 10.98 8.25 11.12 8.01 11.26 8.35 11.41 8.68 11.55 9.01 11.66 9.02 11.67 9.03 11.67 9.03 11.67ZM 5.42 13.18C 5.87 14.38 6.47 15.09 7.01 15.09 7.01 15.09 7.01 15.09 7.01 15.09 7.56 15.09 8.15 14.37 8.6 13.17 8.67 12.98 8.74 12.77 8.81 12.56 8.22 12.35 7.61 12.1 7 11.79 6.39 12.09 5.79 12.35 5.21 12.55 5.27 12.77 5.34 12.98 5.42 13.18ZM 4.98 11.67C 4.98 11.67 4.99 11.66 4.99 11.66 5.32 11.55 5.65 11.41 5.99 11.26 5.75 11.12 5.51 10.98 5.26 10.83 5.1 10.73 4.93 10.62 4.77 10.51 4.83 10.91 4.9 11.3 4.98 11.67ZM 4.97 4.34C 4.89 4.71 4.82 5.1 4.76 5.5 4.93 5.4 5.09 5.29 5.26 5.18 5.51 5.03 5.75 4.89 5.99 4.75 5.65 4.6 5.32 4.46 4.99 4.35 4.98 4.35 4.97 4.34 4.97 4.34ZM 8.58 2.83C 8.13 1.63 7.53 0.91 6.99 0.91 6.44 0.92 5.85 1.63 5.4 2.83 5.32 3.03 5.26 3.24 5.19 3.45 5.78 3.66 6.38 3.91 7 4.22 7.61 3.92 8.21 3.66 8.79 3.46 8.73 3.24 8.66 3.03 8.58 2.83ZM 9.02 4.34C 9.02 4.35 9.01 4.35 9.01 4.35 8.68 4.46 8.35 4.6 8.01 4.75 8.25 4.89 8.49 5.03 8.74 5.18 8.9 5.29 9.07 5.39 9.23 5.5 9.17 5.1 9.1 4.71 9.02 4.34ZM 9.35 6.69C 9 6.44 8.64 6.19 8.26 5.96 7.85 5.7 7.42 5.46 7 5.24 6.58 5.46 6.15 5.7 5.74 5.96 5.36 6.19 5 6.44 4.65 6.69 4.62 7.12 4.6 7.56 4.6 8.01 4.61 8.46 4.62 8.9 4.65 9.32 5 9.58 5.36 9.82 5.74 10.05 6.15 10.31 6.58 10.55 7 10.78 7.42 10.55 7.85 10.31 8.26 10.05 8.64 9.82 9 9.57 9.35 9.32 9.38 8.89 9.4 8.45 9.39 8 9.39 7.55 9.38 7.11 9.35 6.69ZM 11.66 12.21C 11.66 12.21 11.66 12.21 11.66 12.21 12.05 12.21 12.74 12.15 12.99 11.74 13.28 11.28 12.98 10.39 12.21 9.37 12.03 9.13 11.82 8.89 11.6 8.65 11.18 9.04 10.72 9.43 10.22 9.81 10.16 10.56 10.05 11.28 9.9 11.94 10.55 12.12 11.15 12.21 11.66 12.21ZM 10.29 8.6C 10.52 8.4 10.75 8.2 10.96 8.01 10.75 7.81 10.52 7.61 10.29 7.41 10.29 7.61 10.3 7.8 10.3 8 10.3 8.2 10.3 8.4 10.29 8.6ZM 12.99 4.27C 12.74 3.86 12.05 3.8 11.66 3.8 11.15 3.8 10.55 3.89 9.89 4.07 10.04 4.74 10.15 5.45 10.22 6.2 10.71 6.58 11.18 6.97 11.6 7.36 11.82 7.12 12.03 6.88 12.21 6.64 12.98 5.62 13.28 4.74 12.99 4.27ZM 7 9.63C 6.11 9.63 5.38 8.9 5.38 8.01 5.38 7.11 6.11 6.38 7 6.38 7.89 6.38 8.62 7.11 8.62 8.01 8.62 8.9 7.89 9.63 7 9.63Z" fill="rgb(153,153,153)"/></svg>