<?xml version="1.0" encoding="utf-8"?>
<svg xmlns="http://www.w3.org/2000/svg"
	xmlns:xlink="http://www.w3.org/1999/xlink"
	width="13px" height="14px" viewBox="0 0 13 14">
<path fillRule="evenodd" d="M 12.72 5.9C 12.72 5.9 10.84 7.13 10.84 7.13 10.6 7.28 10.3 7.27 10.08 7.12 10.08 7.12 9.96 7.04 9.96 7.04 9.96 7.04 8.77 6.25 8.77 6.25 8.4 6.8 8.03 7.37 7.76 7.88 7.76 7.88 8.85 9.7 8.85 9.7 9.04 10.02 9.02 10.41 8.83 10.71 8.83 10.71 6.9 13.66 6.9 13.66 6.67 14.01 6.21 14.11 5.86 13.86 5.55 13.64 5.45 13.22 5.61 12.88 5.61 12.88 6.78 10.33 6.78 10.33 6.78 10.33 5.82 9.07 5.82 9.07 5.82 9.07 4.82 11.14 4.82 11.14 4.74 11.31 4.61 11.43 4.47 11.51 4.47 11.51 1.08 13.27 1.08 13.27 0.72 13.46 0.27 13.31 0.08 12.92-0.09 12.57 0.02 12.14 0.34 11.92 0.34 11.92 3.18 9.99 3.18 9.99 3.18 9.99 4.06 7.3 4.06 7.3 4.2 6.84 5.22 5.11 5.75 4.31 5.75 4.31 4.52 4.31 4.52 4.31 4.52 4.31 3.02 5.39 3.02 5.39 2.77 5.57 2.42 5.51 2.25 5.25 2.1 5.02 2.12 4.73 2.29 4.54 2.29 4.54 3.73 2.82 3.73 2.82 3.91 2.62 4.23 2.6 4.23 2.6 4.23 2.6 6.76 2.53 6.76 2.53 8.09 2.48 9.05 3.93 9.55 4.53 10.06 5.13 10.53 5.35 10.53 5.35 10.53 5.35 12.22 4.76 12.22 4.76 12.53 4.66 12.87 4.85 12.97 5.18 13.06 5.46 12.94 5.75 12.72 5.9ZM 9.62 3.43C 8.71 3.43 7.98 2.66 7.98 1.71 7.98 0.77 8.71-0 9.62-0 10.53-0 11.27 0.77 11.27 1.71 11.27 2.66 10.53 3.43 9.62 3.43Z" fill="rgb(153,153,153)"/></svg>