<?xml version="1.0" encoding="utf-8"?>
<svg xmlns="http://www.w3.org/2000/svg"
	xmlns:xlink="http://www.w3.org/1999/xlink"
	width="14px" height="16px" viewBox="0 0 14 16">
<path fillRule="evenodd" d="M 10.85 0C 10.66 0.01 10.49 0.1 10.37 0.25 10.37 0.25 9.66 1.1 9.66 1.1 9.41 1.4 8.96 1.45 8.63 1.27 7.84 0.83 6.94 0.57 5.98 0.57 2.9 0.57 0.41 3.15 0.41 6.33 0.41 9.51 2.9 12.08 5.98 12.08 9.06 12.08 11.55 9.51 11.55 6.33 11.55 5.16 11.22 4.08 10.64 3.18 10.54 3.02 10.48 2.85 10.46 2.68 10.43 2.39 10.75 1.99 11 2.05 11.13 2.08 11.26 2.17 11.36 2.31 12.17 3.47 12.62 4.88 12.62 6.33 12.62 10.11 9.64 13.18 5.98 13.18 4.15 13.18 2.45 12.43 1.19 11.07 0.92 10.78 0.49 10.77 0.21 11.05-0.06 11.32-0.07 11.77 0.19 12.05 1.45 13.41 3.06 14.26 4.83 14.52 5.21 14.58 5.51 14.62 5.5 14.64 5.5 14.66 5.5 14.68 5.5 14.7 5.5 14.94 5.19 15.14 4.81 15.14 4.81 15.14 3.37 15.14 3.37 15.14 2.99 15.14 2.68 15.33 2.68 15.57 2.68 15.81 2.99 16 3.37 16 3.37 16 8.46 16 8.46 16 8.84 16 9.15 15.81 9.15 15.57 9.15 15.33 8.84 15.14 8.46 15.14 8.46 15.14 7.02 15.14 7.02 15.14 6.64 15.14 6.33 14.94 6.33 14.7 6.33 14.68 6.33 14.66 6.32 14.65 6.32 14.62 6.62 14.59 7 14.54 10.94 14.02 14 10.54 14 6.33 14 3.99 13.04 1.75 11.36 0.18 11.22 0.05 11.04-0.01 10.85 0Z" fill="rgb(153,153,153)"/></svg>