<?xml version="1.0" encoding="utf-8"?>
<svg xmlns="http://www.w3.org/2000/svg"
	xmlns:xlink="http://www.w3.org/1999/xlink"
	width="13px" height="16px" viewBox="0 0 13 16">
<path fillRule="evenodd" d="M 12.92 14.75C 12.92 14.75 9.39 7.07 9.39 7.07 9.39 7.07 9.39 2.46 9.39 2.46 9.55 2.6 9.76 2.7 10 2.7 10.49 2.7 10.89 2.3 10.89 1.81 10.89 1.81 10.89 0.89 10.89 0.89 10.89 0.4 10.49-0 10-0 10-0 8.49-0 8.49-0 8.49-0 4.51-0 4.51-0 4.51-0 3-0 3-0 2.51-0 2.11 0.4 2.11 0.89 2.11 0.89 2.11 1.81 2.11 1.81 2.11 2.3 2.51 2.7 3 2.7 3.24 2.7 3.45 2.6 3.61 2.46 3.61 2.46 3.61 7.07 3.61 7.07 3.61 7.07 0.08 14.75 0.08 14.75-0.05 15.02-0.02 15.34 0.14 15.59 0.31 15.85 0.59 16 0.89 16 0.89 16 12.11 16 12.11 16 12.41 16 12.69 15.85 12.86 15.59 13.02 15.34 13.05 15.02 12.92 14.75ZM 9.77 14.23C 9.77 14.23 7.42 9.33 7.42 9.33 7.32 9.12 7.11 8.99 6.88 8.99 6.88 8.99 4.7 8.99 4.7 8.99 4.7 8.99 5.32 7.63 5.32 7.63 5.37 7.51 5.4 7.39 5.4 7.26 5.4 7.26 5.4 1.77 5.4 1.77 5.4 1.77 7.6 1.77 7.6 1.77 7.6 1.77 7.6 7.26 7.6 7.26 7.6 7.39 7.63 7.51 7.68 7.63 7.68 7.63 10.72 14.23 10.72 14.23 10.72 14.23 9.77 14.23 9.77 14.23 9.77 14.23 9.77 14.23 9.77 14.23Z" fill="rgb(153,153,153)"/></svg>