<?xml version="1.0" encoding="utf-8"?>
<svg xmlns="http://www.w3.org/2000/svg"
	xmlns:xlink="http://www.w3.org/1999/xlink"
	width="16px" height="10px" viewBox="0 0 16 10">
<path fillRule="evenodd" d="M 14.5 8C 14.5 8 14.5 1 14.5 1 14.5 0.45 14.05-0 13.5-0 13.5-0 2.5-0 2.5-0 1.95-0 1.5 0.45 1.5 1 1.5 1 1.5 8 1.5 8 1.5 8-0 8-0 8-0 8-0 9-0 9-0 9.55 0.45 10 1 10 1 10 15 10 15 10 15.55 10 16 9.55 16 9 16 9 16 8 16 8 16 8 14.5 8 14.5 8ZM 9.5 8.5C 9.5 8.78 9.28 9 9 9 9 9 7 9 7 9 6.72 9 6.5 8.78 6.5 8.5 6.5 8.5 6.5 8 6.5 8 6.5 8 9.5 8 9.5 8 9.5 8 9.5 8.5 9.5 8.5ZM 12.5 7C 12.5 7 3.5 7 3.5 7 3.5 7 3.5 2 3.5 2 3.5 2 12.5 2 12.5 2 12.5 2 12.5 7 12.5 7Z" fill="rgb(153,153,153)"/></svg>