<?xml version="1.0" encoding="utf-8"?>
<svg xmlns="http://www.w3.org/2000/svg"
	xmlns:xlink="http://www.w3.org/1999/xlink"
	width="14px" height="14px" viewBox="0 0 14 14">
<path fillRule="evenodd" d="M 13.82 4.93C 13.82 4.93 0.18 4.93 0.18 4.93 0.1 4.93 0.03 4.87 0.01 4.8-0.02 4.72 0.01 4.64 0.08 4.6 0.08 4.6 6.57 0.13 6.57 0.13 6.83-0.05 7.17-0.05 7.43 0.13 7.43 0.13 13.92 4.6 13.92 4.6 13.99 4.64 14.02 4.72 13.99 4.8 13.97 4.87 13.9 4.93 13.82 4.93ZM 0.51 6.48C 0.51 6.24 0.71 6.04 0.96 6.04 0.96 6.04 3.85 6.04 3.85 6.04 4.1 6.04 4.3 6.24 4.3 6.48 4.3 6.72 4.1 6.92 3.85 6.92 3.85 6.92 3.85 13.12 3.85 13.12 4.1 13.12 4.3 13.32 4.3 13.56 4.3 13.8 4.1 14 3.85 14 3.85 14 0.96 14 0.96 14 0.71 14 0.51 13.8 0.51 13.56 0.51 13.32 0.71 13.12 0.96 13.12 0.96 13.12 0.96 6.92 0.96 6.92 0.71 6.92 0.51 6.72 0.51 6.48ZM 5.11 6.48C 5.11 6.24 5.31 6.04 5.55 6.04 5.55 6.04 8.45 6.04 8.45 6.04 8.69 6.04 8.89 6.24 8.89 6.48 8.89 6.72 8.69 6.92 8.45 6.92 8.45 6.92 8.45 13.12 8.45 13.12 8.69 13.12 8.89 13.32 8.89 13.56 8.89 13.8 8.69 14 8.45 14 8.45 14 5.55 14 5.55 14 5.31 14 5.11 13.8 5.11 13.56 5.11 13.32 5.31 13.12 5.55 13.12 5.55 13.12 5.55 6.92 5.55 6.92 5.31 6.92 5.11 6.72 5.11 6.48ZM 9.7 6.48C 9.7 6.24 9.9 6.04 10.15 6.04 10.15 6.04 13.04 6.04 13.04 6.04 13.29 6.04 13.49 6.24 13.49 6.48 13.49 6.72 13.29 6.92 13.04 6.92 13.04 6.92 13.04 13.12 13.04 13.12 13.29 13.12 13.49 13.32 13.49 13.56 13.49 13.8 13.29 14 13.04 14 13.04 14 10.15 14 10.15 14 9.9 14 9.7 13.8 9.7 13.56 9.7 13.32 9.9 13.12 10.15 13.12 10.15 13.12 10.15 6.92 10.15 6.92 9.9 6.92 9.7 6.72 9.7 6.48Z" fill="rgb(153,153,153)"/></svg>