<?xml version="1.0" encoding="utf-8"?>
<svg xmlns="http://www.w3.org/2000/svg"
	xmlns:xlink="http://www.w3.org/1999/xlink"
	width="11px" height="16px" viewBox="0 0 11 16">
<path fillRule="evenodd" d="M 10.96 2.13C 10.96 2.13 9.53 4.3 9.04 5.05 8.91 5.24 8.83 5.39 8.64 5.3 7.93 4.96 6.52 4.28 5.89 3.98 5.68 3.88 5.75 3.75 5.82 3.51 6.1 2.59 6.89 0.17 6.89 0.17 6.93 0.02 7.09-0.04 7.22 0.03 7.22 0.03 10.86 1.78 10.86 1.78 11 1.84 11.04 2 10.96 2.13ZM 8.29 6.3C 8.14 6.56 7.63 7.3 7.63 7.3 7.54 7.43 7.39 7.44 7.28 7.33 7.28 7.33 6.73 6.75 6.23 6.5 5.82 6.3 5.23 6.22 5.23 6.22 5.08 6.19 4.99 6.06 5.04 5.91 5.04 5.91 5.27 5.15 5.36 4.9 5.4 4.79 5.45 4.52 5.7 4.64 6.32 4.95 7.62 5.57 8.25 5.87 8.47 5.98 8.34 6.2 8.29 6.3ZM 7.41 12.11C 5.91 15.26-1.21 16.9 0.18 15.49 2.66 12.97-0.38 11.84 0.97 9.01 1.9 7.08 4.08 6.21 5.86 7.07 7.64 7.92 8.33 10.18 7.41 12.11Z" fill="rgb(153,153,153)"/></svg>