<svg xmlns="http://www.w3.org/2000/svg" width="11.813" height="13.906" viewBox="0 0 11.813 13.906">
  <defs>
    <style>
      .cls-1 {
        fill: #999;
        fill-rule: evenodd;
      }
    </style>
  </defs>
  <path id="logoped" class="cls-1" d="M2.959,2.628a1.577,1.577,0,1,1,1.616,1.54H4.536a1.554,1.554,0,0,1-1.577-1.53S2.959,2.631,2.959,2.628Zm7.16,0a1.577,1.577,0,1,1,1.616,1.54H11.7a1.554,1.554,0,0,1-1.577-1.53S10.118,2.631,10.118,2.628Zm3.733,5.807a6.1,6.1,0,0,1-3.312,3.141v0.968a2.547,2.547,0,0,1-5.083,0V11.576A5.973,5.973,0,0,1,2.14,8.415a0.734,0.734,0,0,1,.393-0.96l0.019-.008a0.771,0.771,0,0,1,.3-0.059,0.76,0.76,0,0,1,.706.454,4.986,4.986,0,0,0,8.9,0,0.768,0.768,0,0,1,1-.385,0.735,0.735,0,0,1,.4.957Z" transform="translate(-2.094 -1)"/>
</svg>
