<?xml version="1.0" encoding="utf-8"?>
<svg xmlns="http://www.w3.org/2000/svg"
	xmlns:xlink="http://www.w3.org/1999/xlink"
	width="16px" height="14px" viewBox="0 0 16 14">
<path fillRule="evenodd" d="M 11.15 14C 9.14 14 7.42 12.24 6.68 9.73 7.34 9.4 7.93 8.9 8.44 8.26 8.61 8.41 8.87 8.51 9.16 8.51 9.67 8.51 10.08 7.91 10.08 7.56 10.08 7.21 9.67 7.26 9.16 7.26 9.14 7.26 9.12 7.26 9.11 7.26 9.5 6.55 9.81 5.75 10 4.87 10.37 4.89 10.75 4.91 11.15 4.91 12.79 4.91 14.24 4.69 15.18 4.36 15.29 4.32 15.41 4.33 15.51 4.39 15.61 4.44 15.68 4.53 15.71 4.65 15.9 5.39 16 6.18 16 7.01 16 10.87 13.83 14 11.15 14ZM 9.17 11.54C 9.17 11.68 9.19 11.82 9.22 11.96 9.23 11.99 9.25 12.02 9.29 12.04 9.32 12.05 9.36 12.04 9.39 12.02 9.77 11.7 10.41 11.48 11.15 11.48 11.89 11.48 12.53 11.7 12.91 12.02 12.94 12.04 12.98 12.05 13.01 12.04 13.05 12.02 13.07 11.99 13.08 11.96 13.11 11.82 13.13 11.68 13.13 11.54 13.13 10.44 12.25 9.54 11.15 9.54 10.05 9.54 9.17 10.44 9.17 11.54ZM 13.14 7.26C 12.63 7.26 12.22 7.21 12.22 7.56 12.22 7.91 12.63 8.51 13.14 8.51 13.65 8.51 14.06 8.23 14.06 7.88 14.06 7.54 13.65 7.26 13.14 7.26ZM 4.85 9.66C 2.17 9.66-0 6.53-0 2.67-0 1.84 0.1 1.04 0.29 0.3 0.32 0.19 0.39 0.1 0.49 0.04 0.55 0.01 0.62-0 0.68-0 0.73-0 0.77 0 0.82 0.02 1.76 0.35 3.21 0.57 4.85 0.57 6.49 0.57 7.94 0.35 8.88 0.02 8.93 0 8.97-0 9.02-0 9.08-0 9.15 0.01 9.21 0.04 9.31 0.1 9.38 0.19 9.41 0.3 9.6 1.04 9.7 1.84 9.7 2.67 9.7 6.53 7.53 9.66 4.85 9.66ZM 2.86 2.91C 2.35 2.91 1.94 3.19 1.94 3.54 1.94 3.89 2.35 4.17 2.86 4.17 3.37 4.17 3.78 4.21 3.78 3.86 3.78 3.52 3.37 2.91 2.86 2.91ZM 3.09 5.86C 3.06 5.83 3.02 5.83 2.99 5.84 2.95 5.85 2.93 5.88 2.92 5.92 2.89 6.05 2.87 6.19 2.87 6.33 2.87 7.44 3.75 8.34 4.85 8.34 5.95 8.34 6.83 7.44 6.83 6.33 6.83 6.19 6.81 6.05 6.78 5.92 6.77 5.88 6.75 5.85 6.71 5.84 6.68 5.82 6.64 5.83 6.61 5.86 6.23 6.18 5.59 6.39 4.85 6.39 4.11 6.39 3.47 6.18 3.09 5.86ZM 6.84 2.91C 6.33 2.91 5.92 3.52 5.92 3.86 5.92 4.21 6.33 4.17 6.84 4.17 7.35 4.17 7.76 3.89 7.76 3.54 7.76 3.19 7.35 2.91 6.84 2.91Z" fill="rgb(153,153,153)"/></svg>