<?xml version="1.0" encoding="utf-8"?>
<svg xmlns="http://www.w3.org/2000/svg"
	xmlns:xlink="http://www.w3.org/1999/xlink"
	width="14px" height="16px" viewBox="0 0 14 16">
<path fillRule="evenodd" d="M 13.64 0.22C 13.4 0.03 13.1-0.04 12.82 0.03 12.82 0.03 4.62 2.03 4.62 2.03 4.18 2.13 3.88 2.54 3.88 3 3.88 3 3.88 10.17 3.88 10.17 3.55 10.06 3.24 10 2.91 10 1.3 10-0 11.34-0 13-0 14.66 1.29 16 2.89 16 4.49 16 5.79 14.66 5.79 13 5.79 13 5.79 7.29 5.79 7.29 5.79 7.29 12.07 5.76 12.07 5.76 12.07 5.76 12.07 9.17 12.07 9.17 11.77 9.06 11.44 9 11.1 9 9.5 9 8.21 10.34 8.21 12 8.21 13.66 9.5 15 11.1 15 12.7 15 14 13.66 14 12 14 12 14 1 14 1 14 0.69 13.87 0.41 13.64 0.22ZM 5.79 5.24C 5.79 5.24 5.79 3.79 5.79 3.79 5.79 3.79 12.07 2.26 12.07 2.26 12.07 2.26 12.07 3.71 12.07 3.71 12.07 3.71 5.79 5.24 5.79 5.24Z" fill="rgb(153,153,153)"/></svg>