<?xml version="1.0" encoding="utf-8"?>
<svg xmlns="http://www.w3.org/2000/svg"
	xmlns:xlink="http://www.w3.org/1999/xlink"
	width="14px" height="14px" viewBox="0 0 14 14">
<path fillRule="evenodd" d="M 11.65 5.9C 11.51 5.82 11.48 5.75 11.48 5.74 11.49 5.73 11.52 5.68 11.65 5.62 13.14 4.94 14 4.1 14 3.31 14 2.68 13.66 2.36 12.98 2.36 12.8 2.36 12.6 2.38 12.34 2.42 12.3 2.43 12.27 2.43 12.24 2.43 11.97 2.43 11.7 2.25 11.57 1.98 10.99 0.78 9.73-0 8.36-0 6.41-0 4.81 1.54 4.81 3.44 4.81 4.33 5.16 5.17 5.79 5.81 5.91 5.93 5.92 6.02 5.92 6.05 5.91 6.07 5.85 6.11 5.74 6.14 5.25 6.25 4.8 6.34 4.32 6.34 4.08 6.34 3.85 6.32 3.63 6.27 3.49 6.24 3.3 6.18 3.09 6.11 2.59 5.95 1.97 5.76 1.41 5.76 0.9 5.76 0.53 5.92 0.29 6.25-0.21 6.93-0.06 8.3 0.73 10.44 1.68 13.04 3.46 14 7.28 14 7.87 14 8.51 13.98 9.24 13.93 10.54 13.85 11.65 13.43 12.45 12.72 13.29 11.97 13.74 10.93 13.74 9.71 13.74 8.18 12.96 6.76 11.65 5.9ZM 8.75 1.89C 9.15 1.89 9.48 2.21 9.48 2.6 9.48 3 9.15 3.32 8.75 3.32 8.34 3.32 8.01 3 8.01 2.6 8.01 2.21 8.34 1.89 8.75 1.89ZM 5.62 11.5C 3.82 11.22 2.25 9.51 2.25 8.58 2.25 8.12 4.39 8.12 6.21 8.12 8.68 8.12 9.5 8.88 9.5 9.81 9.5 10.74 7.66 11.82 5.62 11.5Z" fill="rgb(153,153,153)"/></svg>