<?xml version="1.0" encoding="utf-8"?>
<svg xmlns="http://www.w3.org/2000/svg"
	xmlns:xlink="http://www.w3.org/1999/xlink"
	width="16px" height="16px" viewBox="0 0 16 16">
<path fillRule="evenodd" d="M 15.99 6.96C 15.99 7.24 15.76 7.48 15.47 7.48 15.47 7.48 15.47 7.48 15.47 7.48 15.3 7.48 15.16 7.4 15.06 7.28 15.06 7.28 14.86 10.43 14.86 10.43 14.84 10.71 14.6 10.92 14.32 10.92 14.32 10.92 13.24 10.92 13.24 10.92 12.96 10.92 12.72 10.7 12.7 10.42 12.7 10.42 12.5 7.27 12.5 7.27 12.4 7.39 12.26 7.48 12.1 7.48 12.1 7.48 12.1 7.48 12.09 7.48 11.81 7.48 11.57 7.24 11.57 6.95 11.57 6.95 11.56 3.73 11.56 3.73 11.56 3.45 11.79 3.2 12.08 3.2 12.08 3.2 15.25 3.2 15.48 3.2 15.48 3.2 15.48 3.2 15.48 3.2 15.77 3.2 16 3.44 16 3.72 16 3.72 15.99 6.96 15.99 6.96ZM 13.78 2.86C 12.98 2.86 12.34 2.22 12.34 1.43 12.34 0.64 12.98-0 13.78-0 14.58-0 15.23 0.64 15.23 1.43 15.23 2.22 14.58 2.86 13.78 2.86ZM 10.15 11.62C 10.14 11.62 10.14 11.62 10.14 11.62 9.94 11.62 9.75 11.51 9.63 11.36 9.63 11.36 9.37 15.37 9.37 15.37 9.35 15.73 9.04 16 8.68 16 8.68 16 7.31 16 7.31 16 6.95 16 6.65 15.73 6.63 15.37 6.63 15.37 6.36 11.37 6.36 11.37 6.24 11.52 6.06 11.62 5.85 11.62 5.85 11.62 5.85 11.62 5.85 11.62 5.48 11.62 5.19 11.32 5.19 10.96 5.19 10.96 5.17 6.84 5.17 6.84 5.17 6.48 5.47 6.18 5.84 6.18 5.84 6.18 5.84 6.18 5.84 6.18 6.13 6.18 10.16 6.18 10.16 6.18 10.53 6.18 10.82 6.49 10.82 6.85 10.82 6.85 10.81 10.95 10.81 10.95 10.81 11.31 10.51 11.62 10.15 11.62ZM 8 5.74C 6.98 5.74 6.16 4.93 6.16 3.92 6.16 2.92 6.98 2.1 8 2.1 9.01 2.1 9.84 2.92 9.84 3.92 9.84 4.93 9.01 5.74 8 5.74ZM 3.9 7.48C 3.9 7.48 3.9 7.48 3.9 7.48 3.74 7.48 3.59 7.39 3.5 7.27 3.5 7.27 3.29 10.42 3.29 10.42 3.27 10.7 3.04 10.92 2.75 10.92 2.75 10.92 1.68 10.92 1.68 10.92 1.39 10.92 1.16 10.71 1.14 10.43 1.14 10.43 0.93 7.28 0.93 7.28 0.84 7.4 0.69 7.48 0.53 7.48 0.53 7.48 0.53 7.48 0.53 7.48 0.24 7.48 0.01 7.24 0.01 6.96 0.01 6.96-0.01 3.72-0.01 3.72-0.01 3.44 0.23 3.2 0.52 3.2 0.52 3.2 0.52 3.2 0.52 3.2 0.74 3.2 3.91 3.2 3.91 3.2 4.2 3.2 4.44 3.45 4.44 3.73 4.44 3.73 4.42 6.95 4.42 6.95 4.42 7.24 4.19 7.48 3.9 7.48ZM 2.22 2.86C 1.42 2.86 0.77 2.22 0.77 1.43 0.77 0.64 1.42-0 2.22-0 3.01-0 3.66 0.64 3.66 1.43 3.66 2.22 3.01 2.86 2.22 2.86Z" fill="rgb(153,153,153)"/></svg>