<?xml version="1.0" encoding="utf-8"?>
<svg xmlns="http://www.w3.org/2000/svg"
	xmlns:xlink="http://www.w3.org/1999/xlink"
	width="12px" height="16px" viewBox="0 0 12 16">
<path fillRule="evenodd" d="M 11.93 4.47C 11.88 4.52 11.82 4.54 11.76 4.54 11.73 4.54 11.7 4.54 11.67 4.53 11.67 4.53 8.75 3.47 8.75 3.47 8.64 3.43 8.55 3.31 8.55 3.19 8.55 3.19 8.54 1.43 8.54 1.43 8.54 1.31 8.62 1.19 8.73 1.15 8.73 1.15 11.62 0.02 11.62 0.02 11.65 0.01 11.68-0 11.71-0 11.85-0 11.96 0.11 11.96 0.24 11.96 0.24 12 4.3 12 4.3 12 4.37 11.98 4.43 11.93 4.47ZM 8.99 7.82C 8.99 7.82 8.99 15.1 8.99 15.1 8.99 15.81 8.37 16 8.05 16 8.05 16 2.72 16 2.72 16 2.35 16 1.81 15.76 1.81 15.1 1.81 15.1 1.81 7.82 1.81 7.82 1.81 6.34 2.73 5.08 4.04 4.55 4.04 4.55 4.04 3.44 4.04 3.44 4.04 3.44 3.45 3.44 3.45 3.44 3.3 3.44 3.18 3.32 3.18 3.17 3.18 3.17 3.18 2.86 3.18 2.86 3.18 2.86 1.75 2.86 1.75 2.86 1.43 2.86 1.17 3.12 1.17 3.44 1.17 3.44 1.17 10.38 1.17 10.38 1.17 10.7 0.9 10.95 0.58 10.95 0.26 10.95 0 10.7 0 10.38 0 10.38 0 3.44 0 3.44 0 2.49 0.78 1.72 1.75 1.72 1.75 1.72 3.18 1.72 3.18 1.72 3.18 1.72 3.18 1.41 3.18 1.41 3.18 1.26 3.3 1.14 3.45 1.14 3.45 1.14 7.35 1.14 7.35 1.14 7.5 1.14 7.62 1.26 7.62 1.41 7.62 1.41 7.62 3.17 7.62 3.17 7.62 3.32 7.5 3.44 7.35 3.44 7.35 3.44 6.76 3.44 6.76 3.44 6.76 3.44 6.76 4.55 6.76 4.55 8.07 5.08 8.99 6.34 8.99 7.82Z" fill="rgb(153,153,153)"/></svg>