<svg xmlns="http://www.w3.org/2000/svg" width="14.688" height="12.813" viewBox="0 0 14.688 12.813">
  <defs>
    <style>
      .cls-1 {
        fill: #999;
        fill-rule: evenodd;
      }
    </style>
  </defs>
  <path id="ork" class="cls-1" d="M6.635,5.7a0.866,0.866,0,0,0-1.116.509q-0.008.021-.014,0.041L4.977,7.782,4.924,6.838,6.6,2a0.7,0.7,0,0,0-.324-0.845,0.641,0.641,0,0,0-.869.266C5.4,1.436,5.389,1.449,5.383,1.462L3.038,6.288a0.835,0.835,0,0,0-.079.354l0.013,3.636L0.816,11.458A1.3,1.3,0,0,0,.3,13.178a1.2,1.2,0,0,0,1.611.551l0.039-.02,3.983-2.172,0.092-.059a1.04,1.04,0,0,0,.522-0.747l0.66-4.02A0.911,0.911,0,0,0,6.635,5.7Zm7.561,5.76-2.155-1.179,0.013-3.637a0.837,0.837,0,0,0-.079-0.354L9.63,1.462a0.642,0.642,0,0,0-.849-0.324l-0.039.019A0.7,0.7,0,0,0,8.418,2l1.673,4.836-0.054.944L9.508,6.248a0.866,0.866,0,0,0-1.089-.565L8.378,5.7A0.911,0.911,0,0,0,7.8,6.71l0.66,4.02a1.04,1.04,0,0,0,.522.747l0.092,0.059,3.983,2.172a1.2,1.2,0,0,0,1.63-.492l0.02-.039a1.3,1.3,0,0,0-.515-1.72h0Z" transform="translate(-0.188 -1.063)"/>
</svg>
