<svg xmlns="http://www.w3.org/2000/svg" width="15.781" height="15.813" viewBox="0 0 15.781 15.813">
  <defs>
    <style>
      .cls-1 {
        fill: #999;
        fill-rule: evenodd;
      }
    </style>
  </defs>
  <path id="other" class="cls-1" d="M3.654,5.172A1.188,1.188,0,1,1,2.421,6.361,1.213,1.213,0,0,1,3.654,5.172ZM15.706,7.817l-2.128-1.7L13.134,5.45l0.1-1.05V4.39a0.942,0.942,0,0,0-.869-1.009H12.346l-1.72-.139a0.952,0.952,0,0,0-1.049.842l-0.014.159A8.891,8.891,0,0,1,10.5,3.608c-0.059.05,0.1-.129-2.115,2.407a0.594,0.594,0,0,0-.1.158L7.2,8.728q-0.012.03-.021,0.059a0.263,0.263,0,0,0-.124,0l-1.543.2-1.7-.7L4.877,8.431a0.69,0.69,0,0,0-.66-0.475H2.555a1.277,1.277,0,0,0-.886-0.376,1.974,1.974,0,0,0,0,3.823,1.249,1.249,0,0,0,.716-0.238V11.5L2.243,12.967,0.913,14.353a0.531,0.531,0,0,0,0,.748l0.027,0.025a0.582,0.582,0,0,0,.809-0.03l1.46-1.515a0.557,0.557,0,0,0,.15-0.327L3.5,11.887H3.7l0.363,1.486L3.78,15.284a0.549,0.549,0,0,0,.476.613H4.267a0.558,0.558,0,0,0,.645-0.456l0-.009,0.3-2.01a0.507,0.507,0,0,0-.01-0.2L4.872,11.887l0.035-1.545L3.4,9.213l1.83,0.753a0.528,0.528,0,0,0,.274.04l1.686-.218A0.518,0.518,0,0,0,7.577,9.55a0.883,0.883,0,0,0,.226.04A0.656,0.656,0,0,0,8.4,9.2L9.449,6.737c2.038-2.337,2-2.278,2.038-2.337L10.069,7l-0.8,2.278,0.4,2.446L8.425,14.9a0.738,0.738,0,0,0,.426.95L8.88,15.859a0.787,0.787,0,0,0,1-.436L11.2,12.076a0.747,0.747,0,0,0,.041-0.386c-0.091-.555-0.353-2.149-0.443-2.7l0.412,0.03,1.244,2.644,0.867,3.664a0.78,0.78,0,0,0,.932.565,0.75,0.75,0,0,0,.6-0.876l0-.025-0.886-3.734a0.572,0.572,0,0,0-.049-0.139L12.835,8.837c0.028-.327.112-1.258,0.142-1.585l1.906,1.525A0.667,0.667,0,0,0,15.8,8.688a0.6,0.6,0,0,0-.05-0.839C15.733,7.838,15.72,7.827,15.706,7.817ZM11.778,2.835a1.423,1.423,0,0,0,1.551-1.258A1.39,1.39,0,0,0,12.042.093H12.023a1.378,1.378,0,0,0-.368,2.732c0.041,0.006.082,0.009,0.123,0.011h0Z" transform="translate(-0.188 -0.094)"/>
</svg>
