<svg xmlns="http://www.w3.org/2000/svg" width="15.844" height="15.781" viewBox="0 0 15.844 15.781">
  <defs>
    <style>
      .cls-1 {
        fill: #999;
        fill-rule: evenodd;
      }
    </style>
  </defs>
  <path id="preschool" class="cls-1" d="M14.806,3.767A1.769,1.769,0,0,0,13.487,2.04l-2.32-.592A2.445,2.445,0,0,0,10.906,1.4L9.873-.013,9.691,1.625l-0.15.089L8.22,1.566,8.774,2.592a2.179,2.179,0,0,0-.213.947V5.118l-0.117.957H5.585L4.458,4.645a0.867,0.867,0,0,0-.99-0.286,0.894,0.894,0,0,0-.594.859V10.28l-0.118.415a9.615,9.615,0,0,0,2.435,1.165l0.289-1.036H9.813l0.657,1.165a9.569,9.569,0,0,0,2.486-1.017L11.843,8.987V5.553h1.222a1.763,1.763,0,0,0,1.741-1.785h0ZM8.344,6.895l-0.18,1.47H6.52L5.973,6.895H8.344ZM0.683,13.122a11.8,11.8,0,0,0,3.4,1.944,11.6,11.6,0,0,0,8,0A11.7,11.7,0,0,0,15.492,13.1,1.4,1.4,0,0,0,16,12a1.415,1.415,0,0,0-.2-0.71,1.371,1.371,0,0,0-1.009-.651h0a0.417,0.417,0,0,0-.334.1A10.278,10.278,0,0,1,10.6,12.629a8.9,8.9,0,0,1-5.049,0A10.271,10.271,0,0,1,1.7,10.734a0.444,0.444,0,0,0-.346-0.1,1.352,1.352,0,0,0-.92.533,1.438,1.438,0,0,0,.248,1.954h0Z" transform="translate(-0.156)"/>
</svg>
