<svg xmlns="http://www.w3.org/2000/svg" width="14" height="16" viewBox="0 0 14 16">
  <defs>
    <style>
      .cls-1 {
        fill: #999;
        fill-rule: evenodd;
      }
    </style>
  </defs>
  <path id="psycho" class="cls-1" d="M6.951,6.058a1.19,1.19,0,1,0-1.232-1.19,1.207,1.207,0,0,0,1.223,1.19H6.951ZM2.975,13.972v1.587a0.451,0.451,0,0,0,.456.446H9.852a0.45,0.45,0,0,0,.455-0.444V14.012h1.8a1.294,1.294,0,0,0,1.3-1.26V10.541l1.05-.02A0.542,0.542,0,0,0,15,9.983a0.537,0.537,0,0,0-.063-0.255L13.792,7.635a3.128,3.128,0,0,1-.39-1.508h0a6.194,6.194,0,0,0-12.387.06h0a5.786,5.786,0,0,0,.675,2.658A10.939,10.939,0,0,1,2.975,13.972Zm0.7-9.313A0.289,0.289,0,0,1,3.851,4.4l0.675-.278a0.318,0.318,0,0,0,.157-0.149,0.172,0.172,0,0,0,.009-0.03,0.285,0.285,0,0,0,0-.218L4.416,3.082a0.274,0.274,0,0,1,.063-0.307l0.309-.3A0.284,0.284,0,0,1,5.1,2.418L5.786,2.685a0.409,0.409,0,0,0,.219,0,0.017,0.017,0,0,1,.018-0.01,0.31,0.31,0,0,0,.163-0.159l0.283-.655a0.3,0.3,0,0,1,.269-0.169H7.173a0.3,0.3,0,0,1,.267.169L7.732,2.527a0.289,0.289,0,0,0,.158.149H7.9a0.29,0.29,0,0,0,.223,0l0.683-.268a0.3,0.3,0,0,1,.316.06l0.309,0.3a0.28,0.28,0,0,1,.064.307l-0.278.675a0.26,0.26,0,0,0,0,.208h0a0.265,0.265,0,0,0,.158.159l0.687,0.278a0.3,0.3,0,0,1,.179.258V5.076a0.279,0.279,0,0,1-.178.258l-0.689.288a0.277,0.277,0,0,0-.157.149V5.78a0.26,0.26,0,0,0,0,.208L9.5,6.653a0.273,0.273,0,0,1-.064.308l-0.309.3a0.283,0.283,0,0,1-.314.06L8.122,7.05a0.333,0.333,0,0,0-.219.01H7.89a0.291,0.291,0,0,0-.159.149L7.45,7.873a0.291,0.291,0,0,1-.269.179H6.746a0.289,0.289,0,0,1-.267-0.179L6.189,7.218A0.264,0.264,0,0,0,6.025,7.07c-0.006,0-.013-0.01-0.018-0.01a0.281,0.281,0,0,0-.22,0l-0.676.268a0.288,0.288,0,0,1-.317-0.06l-0.308-.3a0.276,0.276,0,0,1-.064-0.308L4.7,6.008a0.285,0.285,0,0,0,0-.218,0.034,0.034,0,0,1-.011-0.02,0.3,0.3,0,0,0-.159-0.159L3.855,5.344a0.28,0.28,0,0,1-.179-0.258V4.659h0Z" transform="translate(-1)"/>
</svg>
