<?xml version="1.0" encoding="utf-8"?>
<svg xmlns="http://www.w3.org/2000/svg"
	xmlns:xlink="http://www.w3.org/1999/xlink"
	width="14px" height="14px" viewBox="0 0 14 14">
<path fillRule="evenodd" d="M 13.03 0.18C 12.91 0.06 12.78-0 12.66-0 12.58-0 12.5 0.02 12.44 0.07 12.21 0.22 12.06 0.4 11.91 0.59 11.64 0.92 11.36 1.25 10.65 1.57 10.65 1.57 10.57 1.6 10.57 1.6 10.57 1.6 10.22 2.68 10.22 2.68 10.22 2.68 9.96 1.82 9.96 1.82 9.96 1.82 9.77 1.88 9.77 1.88 9.63 1.92 9.48 1.96 9.32 1.99 8.99 2.07 8.65 2.17 8.33 2.28 8.33 2.28 8.24 2.31 8.24 2.31 8.24 2.31 7.65 4.11 7.65 4.11 7.65 4.11 7.23 2.71 7.23 2.71 7.23 2.71 7.02 2.82 7.02 2.82 6.16 3.24 5.37 3.8 4.67 4.47 4.67 4.47 4.65 4.49 4.65 4.49 4.65 4.49 3.56 6.88 3.56 6.88 3.56 6.88 3.39 5.93 3.39 5.93 3.39 5.93 3.12 6.33 3.12 6.33 3.12 6.33 3.1 6.36 3.1 6.36 3.09 6.38 3.08 6.39 3.07 6.41 1.79 8.35 1.51 10.44 1.96 11.46 1.96 11.46 0.14 13.21 0.14 13.21-0.05 13.39-0.05 13.68 0.14 13.86 0.24 13.95 0.36 14 0.48 14 0.6 14 0.73 13.95 0.82 13.86 0.82 13.86 2.65 12.11 2.65 12.11 2.73 12.13 2.82 12.14 2.91 12.14 2.91 12.14 2.91 12.14 2.91 12.14 2.97 12.14 3.03 12.14 3.09 12.13 3.28 12.1 3.53 12.07 3.81 12.03 4.73 11.92 6.14 11.75 7.59 11.34 7.59 11.34 7.98 11.23 7.98 11.23 7.98 11.23 7.42 10.86 7.42 10.86 7.42 10.86 8.96 10.87 8.96 10.87 8.96 10.87 8.99 10.86 8.99 10.86 10.16 10.39 11.14 9.77 11.91 9.04 12.23 8.73 12.52 8.39 12.77 8.02 12.77 8.02 12.91 7.81 12.91 7.81 12.91 7.81 11.57 7.44 11.57 7.44 11.57 7.44 13.39 6.89 13.39 6.89 13.39 6.89 13.43 6.8 13.43 6.8 13.67 6.23 13.83 5.61 13.92 4.96 13.92 4.96 13.94 4.8 13.94 4.8 13.94 4.8 12.87 4.5 12.87 4.5 12.87 4.5 13.99 4.16 13.99 4.16 13.99 4.16 14 4.03 14 4.03 14.04 2.26 13.54 0.68 13.03 0.18Z" fill="rgb(153,153,153)"/></svg>