<?xml version="1.0" encoding="utf-8"?>
<svg xmlns="http://www.w3.org/2000/svg"
	xmlns:xlink="http://www.w3.org/1999/xlink"
	width="16px" height="16px" viewBox="0 0 16 16">
<path fillRule="evenodd" d="M 15.84 1.32C 15.84 1.32 15.01 1.56 15.01 1.56 14.95 1.58 14.92 1.64 14.93 1.69 14.93 1.69 15.15 2.61 15.15 2.61 15.16 2.64 15.16 2.67 15.14 2.69 15.14 2.69 15.14 2.69 15.14 2.69 15.13 2.72 15.1 2.73 15.08 2.74 15.08 2.74 14.22 2.96 14.22 2.96 14.17 2.97 14.13 3.03 14.15 3.09 14.15 3.09 14.37 4 14.37 4 14.37 4.03 14.37 4.06 14.36 4.08 14.36 4.08 14.36 4.08 14.36 4.08 14.36 4.08 14.35 4.1 14.33 4.12 14.32 4.12 14.3 4.13 14.29 4.14 14.29 4.14 13.44 4.35 13.44 4.35 13.41 4.36 13.39 4.37 13.37 4.4 13.35 4.44 13.38 4.55 13.4 4.63 13.4 4.63 13.58 5.4 13.58 5.4 13.59 5.42 13.58 5.45 13.57 5.47 13.57 5.47 13.57 5.48 13.57 5.48 13.55 5.5 13.53 5.52 13.5 5.53 13.5 5.53 12.65 5.74 12.65 5.74 12.6 5.76 12.56 5.82 12.58 5.87 12.58 5.87 12.79 6.79 12.79 6.79 12.8 6.81 12.8 6.84 12.78 6.87 12.78 6.87 12.78 6.87 12.78 6.87 12.77 6.9 12.74 6.92 12.71 6.92 12.71 6.92 11.87 7.14 11.87 7.14 11.81 7.15 11.78 7.21 11.79 7.27 11.79 7.27 12.01 8.18 12.01 8.18 12.02 8.21 12.01 8.23 12 8.26 12 8.26 11.99 8.27 11.99 8.27 11.98 8.29 11.95 8.31 11.93 8.32 11.93 8.32 11.08 8.53 11.08 8.53 11.03 8.55 10.99 8.6 11 8.66 11 8.66 11.22 9.57 11.22 9.57 11.23 9.6 11.22 9.63 11.2 9.66 11.19 9.69 11.17 9.7 11.14 9.71 11.14 9.71 10.29 9.93 10.29 9.93 10.24 9.94 10.21 10 10.22 10.06 10.23 10.09 10.24 10.13 10.25 10.16 10.31 10.36 10.37 10.55 10.43 10.75 10.45 10.83 10.5 10.93 10.44 11 10.38 11.06 9.69 11.33 9.24 11.51 9.21 11.44 9.18 11.37 9.13 11.31 9.13 11.31 5.83 6.68 5.83 6.68 5.8 6.64 5.77 6.6 5.73 6.57 5.73 6.57 14.33 0.08 14.33 0.08 14.43 0 14.57-0.02 14.69 0.01 14.77 0.03 14.88 0.13 14.94 0.18 14.94 0.18 15.85 1.03 15.85 1.03 15.91 1.09 16 1.16 16 1.2 16 1.27 15.92 1.3 15.84 1.32ZM 8.85 11.67C 8.93 11.88 8.87 12.13 8.68 12.27 8.68 12.27 4.93 15.11 4.93 15.11 4.93 15.11 4.46 15.46 4.46 15.46 4.46 15.46 3.88 15.9 3.88 15.9 3.79 15.97 3.69 16 3.59 16 3.44 16 3.29 15.93 3.19 15.79 3.19 15.79 2.85 15.31 2.85 15.31 2.69 15.08 2.73 14.76 2.95 14.6 2.95 14.6 3.05 14.53 3.05 14.53 3.1 14.49 3.1 14.41 3.05 14.33 3.05 14.33 1.4 12.02 1.4 12.02 1.37 11.98 1.32 11.95 1.28 11.95 1.25 11.95 1.24 11.96 1.22 11.97 1.17 12.01 1.13 12.04 1.13 12.04 1.04 12.1 0.94 12.13 0.84 12.13 0.69 12.13 0.54 12.06 0.44 11.93 0.44 11.93 0.09 11.44 0.09 11.44-0.07 11.22-0.02 10.9 0.2 10.74 0.2 10.74 0.78 10.3 0.78 10.3 0.78 10.3 1.25 9.95 1.25 9.95 1.25 9.95 4.44 7.54 4.44 7.54 4.44 7.54 5.28 6.91 5.28 6.91 5.31 6.89 5.34 6.88 5.37 6.88 5.42 6.88 5.46 6.9 5.49 6.94 5.49 6.94 8.79 11.57 8.79 11.57 8.81 11.6 8.83 11.63 8.85 11.67ZM 6.05 12.47C 6.05 12.47 4.04 9.64 4.04 9.64 3.87 9.41 3.57 9.37 3.35 9.53 3.35 9.53 2.24 10.37 2.24 10.37 2.02 10.53 1.97 10.85 2.13 11.07 2.13 11.07 4.15 13.9 4.15 13.9 4.31 14.13 4.62 14.17 4.84 14.01 4.84 14.01 5.94 13.17 5.94 13.17 6.16 13.01 6.21 12.69 6.05 12.47Z" fill="rgb(153,153,153)"/></svg>