<?xml version="1.0" encoding="utf-8"?>
<svg xmlns="http://www.w3.org/2000/svg"
	xmlns:xlink="http://www.w3.org/1999/xlink"
	width="13px" height="14px" viewBox="0 0 13 14">
<path fillRule="evenodd" d="M 10.49 8.64C 10.49 8.64 10.49 10.18 10.49 10.18 10.49 10.18 2.51 10.18 2.51 10.18 2.51 10.18 2.51 8.64 2.51 8.64 1.05 8.2-0 6.81-0 5.2-0 3.22 1.57 1.61 3.5 1.61 3.52 1.61 3.55 1.61 3.58 1.61 4.22 0.61 5.3-0 6.5-0 7.7-0 8.78 0.61 9.42 1.61 9.45 1.61 9.48 1.61 9.5 1.61 11.43 1.61 13 3.22 13 5.2 13 6.81 11.95 8.2 10.49 8.64ZM 10.49 13.36C 10.49 13.71 10.21 14 9.87 14 9.87 14 3.13 14 3.13 14 2.79 14 2.51 13.71 2.51 13.36 2.51 13.36 2.51 11.45 2.51 11.45 2.51 11.45 10.49 11.45 10.49 11.45 10.49 11.45 10.49 13.36 10.49 13.36Z" fill="rgb(153,153,153)"/></svg>