<?xml version="1.0" encoding="utf-8"?>
<svg xmlns="http://www.w3.org/2000/svg"
	xmlns:xlink="http://www.w3.org/1999/xlink"
	width="11px" height="7px" viewBox="0 0 11 7">
<path fillRule="evenodd" d="M 5.5 7C 2.46 7-0 4.2-0 3.5-0 2.8 2.46-0 5.5-0 8.54-0 11 2.8 11 3.5 11 4.2 8.54 7 5.5 7ZM 5.5 0.7C 3.98 0.7 2.75 1.95 2.75 3.5 2.75 5.04 3.98 6.3 5.5 6.3 7.02 6.3 8.25 5.04 8.25 3.5 8.25 1.95 7.02 0.7 5.5 0.7ZM 5.5 4.9C 4.74 4.9 4.12 4.27 4.12 3.5 4.12 2.72 4.74 2.1 5.5 2.1 6.26 2.1 6.87 2.72 6.87 3.5 6.87 4.27 6.26 4.9 5.5 4.9Z" fill="rgb(191,191,191)"/></svg>