<?xml version="1.0" encoding="utf-8"?>
<svg xmlns="http://www.w3.org/2000/svg"
	xmlns:xlink="http://www.w3.org/1999/xlink"
	width="16px" height="14px" viewBox="0 0 16 14">
<path fillRule="evenodd" d="M 15.95 11.37C 15.84 11.64 15.59 11.81 15.31 11.81 15.31 11.81 13.44 11.81 13.44 11.81 13.44 11.81 13.44 13.62 13.44 13.62 13.44 13.83 13.28 14 13.08 14 13.08 14 11.34 14 11.34 14 11.14 14 10.98 13.83 10.98 13.62 10.98 13.62 10.98 11.81 10.98 11.81 10.98 11.81 9.99 11.81 9.99 11.81 10.18 11.62 10.34 11.39 10.45 11.12 10.73 10.4 10.59 9.59 10.11 9.01 10.11 9.01 10.58 8.52 10.58 8.52 10.58 8.52 9.78 8.52 9.78 8.52 9.74 8.52 9.69 8.51 9.64 8.5 9.64 8.5 9.27 8.1 9.27 8.1 9.21 7.91 9.26 7.7 9.4 7.55 9.4 7.55 10.95 5.92 10.95 5.92 10.95 5.92 10.2 5.92 10.2 5.92 10.02 5.92 9.85 5.8 9.78 5.63 9.71 5.45 9.75 5.25 9.88 5.11 9.88 5.11 11.89 3 11.89 3 12.07 2.82 12.35 2.82 12.53 3 12.53 3 14.54 5.11 14.54 5.11 14.67 5.25 14.71 5.45 14.64 5.63 14.57 5.8 14.4 5.92 14.22 5.92 14.22 5.92 13.47 5.92 13.47 5.92 13.47 5.92 15.02 7.55 15.02 7.55 15.18 7.71 15.22 7.96 15.14 8.17 15.05 8.38 14.86 8.52 14.64 8.52 14.64 8.52 13.84 8.52 13.84 8.52 13.84 8.52 15.8 10.57 15.8 10.57 15.99 10.78 16.05 11.09 15.95 11.37ZM 7.81 7.12C 7.81 7.12 6.82 7.12 6.82 7.12 6.82 7.12 9.27 9.69 9.27 9.69 9.52 9.95 9.59 10.35 9.46 10.69 9.33 11.03 9.01 11.25 8.65 11.25 8.65 11.25 6.31 11.25 6.31 11.25 6.31 11.25 6.31 13.62 6.31 13.62 6.31 13.83 6.15 14 5.95 14 5.95 14 3.57 14 3.57 14 3.38 14 3.21 13.83 3.21 13.62 3.21 13.62 3.21 11.25 3.21 11.25 3.21 11.25 0.87 11.25 0.87 11.25 0.52 11.25 0.2 11.03 0.07 10.69-0.07 10.35 0.01 9.95 0.26 9.69 0.26 9.69 2.71 7.12 2.71 7.12 2.71 7.12 1.71 7.12 1.71 7.12 1.44 7.12 1.19 6.94 1.08 6.67 0.98 6.41 1.04 6.1 1.23 5.89 1.23 5.89 3.18 3.84 3.18 3.84 3.18 3.84 2.23 3.84 2.23 3.84 2.01 3.84 1.8 3.7 1.71 3.47 1.62 3.25 1.67 3 1.83 2.83 1.83 2.83 4.36 0.17 4.36 0.17 4.47 0.06 4.62-0 4.76-0 4.91-0 5.05 0.06 5.16 0.17 5.16 0.17 7.69 2.83 7.69 2.83 7.85 3 7.9 3.25 7.81 3.47 7.73 3.7 7.52 3.84 7.29 3.84 7.29 3.84 6.34 3.84 6.34 3.84 6.34 3.84 8.29 5.89 8.29 5.89 8.49 6.1 8.55 6.41 8.44 6.67 8.34 6.94 8.09 7.12 7.81 7.12Z" fill="rgb(153,153,153)"/></svg>