<svg xmlns="http://www.w3.org/2000/svg" width="15.969" height="15.969" viewBox="0 0 15.969 15.969">
  <defs>
    <style>
      .cls-1 {
        fill: #999;
        fill-rule: evenodd;
      }
    </style>
  </defs>
  <path id="zavuch" class="cls-1" d="M4.759,0A1.565,1.565,0,1,1,3.2,1.577s0-.007,0-0.01A1.56,1.56,0,0,1,4.758,0h0Zm3.63,10.606a0.863,0.863,0,0,0-.628-0.718L5.953,9.422l0.041-.568A0.945,0.945,0,0,1,5.3,8.3l-1.1-2.6L5.881,7.837a0.692,0.692,0,0,0,.61.269L7.944,8a0.365,0.365,0,0,0-.015.11,0.392,0.392,0,0,0,.389.389h3.51a0.391,0.391,0,0,0,.376-0.289l0.988-3.688a0.387,0.387,0,0,0-.271-0.477h0a0.38,0.38,0,0,0-.473.256l0,0.013-0.911,3.4H9.708a0.7,0.7,0,0,0,.24-0.588,0.706,0.706,0,0,0-.76-0.648l-2.431.2L5.31,4.817,6.231,5.5l0.03-.419A1.054,1.054,0,0,0,5.285,3.96L3.5,3.84A1.046,1.046,0,0,0,2.378,4.8c0,0.032,0,.063,0,0.095l0.04,5.223a0.9,0.9,0,0,0,.22.588H1.915L1.156,4.7a0.564,0.564,0,0,0-1.12.14l0.821,6.509a0.572,0.572,0,0,0,.56.5H3.455v2.313l-1.34,1.1a0.4,0.4,0,0,0-.055.558,0.391,0.391,0,0,0,.547.05l0.848-.7v0.4a0.389,0.389,0,0,0,.778,0h0v-0.4l0.847,0.7a0.388,0.388,0,0,0,.247.09,0.392,0.392,0,0,0,.245-0.7l-1.34-1.1V11.845H6.089a0.566,0.566,0,0,0,.557-0.489L6.782,11.4l0.485,3.818a0.847,0.847,0,0,0,1.679-.219h0ZM15.438,9H9.029a0.563,0.563,0,1,0,0,1.126h5.844v4.685H12.218a0.569,0.569,0,0,0-.564.568,0.563,0.563,0,0,0,.557.568h3.227A0.563,0.563,0,0,0,16,15.39s0,0,0-.007V9.562A0.56,0.56,0,0,0,15.439,9h0Z" transform="translate(-0.031)"/>
</svg>
